<svg width="23" height="23" viewBox="0 0 23 23" fill="none" xmlns="http://www.w3.org/2000/svg">
<path d="M9.17407 18.361L7.93924 18.1292L7.93924 18.1292L9.17407 18.361ZM9.19472 18.2509L10.4296 18.4827L10.4296 18.4827L9.19472 18.2509ZM14.0266 18.2509L12.7917 18.4827L12.7917 18.4827L14.0266 18.2509ZM14.0472 18.361L15.2821 18.1292L15.2821 18.1292L14.0472 18.361ZM13.7377 20.7442L14.8722 21.284L14.8722 21.284L13.7377 20.7442ZM12.4786 20.4663C12.1804 21.0929 12.4466 21.8425 13.0731 22.1407C13.6997 22.4389 14.4493 22.1727 14.7475 21.5461L12.4786 20.4663ZM9.48356 20.7442L8.34907 21.284L8.34908 21.2841L9.48356 20.7442ZM8.47379 21.5461C8.77196 22.1727 9.52161 22.4389 10.1482 22.1407C10.7747 21.8425 11.0409 21.0929 10.7427 20.4663L8.47379 21.5461ZM10.9283 16.3556L10.5924 15.145L10.5924 15.145L10.9283 16.3556ZM12.293 16.3556L12.6289 15.145L12.6289 15.145L12.293 16.3556ZM10.4089 18.5927L10.4296 18.4827L7.95989 18.0191L7.93924 18.1292L10.4089 18.5927ZM12.7917 18.4827L12.8124 18.5927L15.2821 18.1292L15.2614 18.0191L12.7917 18.4827ZM12.6033 20.2043L12.4786 20.4663L14.7475 21.5461L14.8722 21.284L12.6033 20.2043ZM8.34908 21.2841L8.47379 21.5461L10.7427 20.4663L10.618 20.2043L8.34908 21.2841ZM12.8124 18.5927C12.9149 19.139 12.8415 19.7037 12.6033 20.2043L14.8722 21.284C15.3392 20.3027 15.4826 19.1975 15.2821 18.1292L12.8124 18.5927ZM7.93924 18.1292C7.73869 19.1975 7.88207 20.3027 8.34907 21.284L10.618 20.2043C10.3798 19.7037 10.3064 19.139 10.4089 18.5927L7.93924 18.1292ZM11.2642 17.5663C11.491 17.5034 11.7303 17.5034 11.9571 17.5663L12.6289 15.145C11.9625 14.9601 11.2588 14.9601 10.5924 15.145L11.2642 17.5663ZM15.2614 18.0191C15.0023 16.6388 13.9841 15.521 12.6289 15.145L11.9571 17.5663C12.3811 17.684 12.708 18.0367 12.7917 18.4827L15.2614 18.0191ZM10.4296 18.4827C10.5133 18.0367 10.8402 17.684 11.2642 17.5663L10.5924 15.145C9.23719 15.521 8.21899 16.6388 7.95989 18.0191L10.4296 18.4827Z" fill="#7928CA"/>
<path d="M20.6531 9.17551C20.6531 8.48162 20.0906 7.91912 19.3967 7.91912C18.7028 7.91912 18.1403 8.48162 18.1403 9.17551H20.6531ZM5.08256 9.17551C5.08256 8.48162 4.52006 7.91912 3.82617 7.91912C3.13228 7.91912 2.56977 8.48162 2.56977 9.17551H5.08256ZM14.2954 20.9101L14.0066 19.6874H14.0066L14.2954 20.9101ZM8.92743 20.9101L9.21629 19.6874L8.92743 20.9101ZM14.632 4.15107L13.7405 5.03632H13.7405L14.632 4.15107ZM20.3313 11.6741C20.8203 12.1665 21.6158 12.1693 22.1081 11.6804C22.6005 11.1915 22.6034 10.396 22.1144 9.90356L20.3313 11.6741ZM8.59086 4.15107L9.48241 5.03632L8.59086 4.15107ZM1.10845 9.90356C0.619537 10.396 0.622357 11.1915 1.11475 11.6804C1.60714 12.1693 2.40264 12.1665 2.89155 11.6741L1.10845 9.90356ZM18.1403 9.17551V14.428H20.6531V9.17551H18.1403ZM5.08256 14.428V9.17551H2.56977V14.428H5.08256ZM14.0066 19.6874C12.4312 20.0595 10.7917 20.0595 9.21629 19.6874L8.63857 22.1329C10.5939 22.5948 12.629 22.5948 14.5843 22.1329L14.0066 19.6874ZM9.21629 19.6874C6.80037 19.1166 5.08256 16.9425 5.08256 14.428H2.56977C2.56977 18.0963 5.07761 21.2916 8.63857 22.1329L9.21629 19.6874ZM14.5843 22.1329C18.1453 21.2916 20.6531 18.0963 20.6531 14.428H18.1403C18.1403 16.9425 16.4225 19.1166 14.0066 19.6874L14.5843 22.1329ZM13.7405 5.03632L20.3313 11.6741L22.1144 9.90356L15.5236 3.26582L13.7405 5.03632ZM7.69931 3.26582L1.10845 9.90356L2.89155 11.6741L9.48241 5.03632L7.69931 3.26582ZM15.5236 3.26582C14.8367 2.57406 14.2343 1.96353 13.6851 1.54152C13.1072 1.09752 12.4417 0.743602 11.6114 0.743602V3.2564C11.6659 3.2564 11.7987 3.26099 12.154 3.53402C12.5379 3.82903 13.0034 4.29404 13.7405 5.03632L15.5236 3.26582ZM9.48241 5.03632C10.2195 4.29404 10.6849 3.82903 11.0689 3.53402C11.4242 3.261 11.557 3.2564 11.6114 3.2564V0.743602C10.7812 0.743602 10.1157 1.09752 9.53784 1.54152C8.98863 1.96353 8.38618 2.57406 7.69931 3.26582L9.48241 5.03632Z" fill="#FF0080"/>
</svg>
