<?xml version="1.0" standalone="no"?>
<!DOCTYPE svg PUBLIC "-//W3C//DTD SVG 20010904//EN"
 "http://www.w3.org/TR/2001/REC-SVG-20010904/DTD/svg10.dtd">
<svg version="1.0" xmlns="http://www.w3.org/2000/svg"
 width="600.000000pt" height="300.000000pt" viewBox="0 0 600.000000 300.000000"
 preserveAspectRatio="xMidYMid meet">

<g transform="translate(0.000000,300.000000) scale(0.100000,-0.100000)"
fill="#FFF" stroke="none">
<path d="M1756 1994 c-8 -20 0 -32 14 -18 5 5 5 15 1 22 -6 11 -10 10 -15 -4z"/>
<path d="M1774 1906 c6 -23 4 -27 -8 -23 -13 5 -16 -4 -16 -57 l0 -63 -58 -6
c-32 -2 -72 -12 -88 -20 -27 -14 -31 -14 -58 8 -16 12 -26 27 -23 32 3 4 -11
19 -31 31 -34 21 -35 21 -13 2 18 -16 22 -23 13 -29 -9 -5 1 -20 33 -50 25
-23 45 -44 45 -47 0 -3 -14 -17 -32 -32 -17 -14 -39 -45 -50 -69 -21 -47 -21
-47 -62 -57 -24 -6 -28 -4 -22 10 5 12 2 15 -10 10 -8 -3 -23 -6 -32 -7 -10 0
-12 -3 -5 -5 7 -3 10 -11 7 -17 -3 -9 13 -12 53 -11 32 1 62 0 68 -2 5 -2 10
-30 11 -62 1 -31 8 -71 17 -88 15 -29 15 -32 -8 -60 -15 -17 -24 -23 -25 -15
0 19 -10 8 -40 -44 l-22 -40 25 30 c16 19 26 24 27 15 0 -8 20 5 48 33 l48 47
33 -34 c18 -19 52 -41 76 -50 38 -15 43 -21 47 -52 3 -26 1 -33 -9 -30 -14 6
-11 -15 9 -74 7 -21 7 -19 3 9 -4 27 -2 31 8 23 11 -9 13 2 13 61 l-1 71 40
-2 c24 -2 60 5 89 17 l48 21 30 -21 c20 -14 26 -24 18 -29 -7 -5 2 -15 27 -30
37 -22 37 -22 19 -1 -14 15 -15 21 -5 21 7 0 -9 22 -35 49 l-49 50 33 33 c18
18 41 51 52 74 16 37 23 42 59 48 49 8 54 5 40 -22 -8 -16 -7 -21 7 -24 9 -2
570 -3 1245 -1 1201 3 1229 3 1234 -16 5 -19 6 -19 76 1 40 11 73 21 74 22 2
1 -31 14 -72 29 -72 25 -75 25 -75 7 0 -20 -15 -20 -1220 -20 -1056 0 -1220 2
-1220 14 0 8 5 18 10 21 26 16 3 21 -80 17 l-90 -4 0 55 c0 32 -7 72 -17 92
-17 35 -17 36 10 63 18 18 27 22 27 12 0 -8 14 8 30 37 34 59 41 87 9 34 -11
-18 -23 -30 -26 -27 -4 4 -29 -15 -55 -41 l-49 -48 -23 30 c-13 17 -47 41 -75
55 -28 13 -51 28 -51 34 0 6 -3 22 -7 35 -5 19 -3 23 9 18 13 -5 14 1 6 36 -5
23 -12 44 -15 47 -3 3 -3 -8 1 -24z m76 -203 c83 -52 120 -115 120 -204 0
-183 -196 -287 -348 -185 -59 39 -102 118 -102 186 0 94 81 198 171 221 45 11
128 2 159 -18z"/>
<path d="M1668 1687 c-15 -7 -42 -26 -59 -42 -103 -97 -69 -274 63 -330 172
-71 336 121 245 287 -32 59 -87 92 -161 95 -34 1 -73 -3 -88 -10z"/>
<path d="M2106 1881 c-12 -13 -14 -21 -6 -26 14 -8 15 -7 24 23 9 27 4 28 -18
3z"/>
<path d="M1400 1861 c11 -22 30 -29 30 -11 0 5 -9 14 -21 20 -19 11 -20 10 -9
-9z"/>
<path d="M1657 1814 c-58 -18 -112 -50 -99 -58 6 -3 34 5 64 19 29 14 65 25
81 25 17 0 27 5 27 15 0 18 -11 18 -73 -1z"/>
<path d="M1792 1818 c3 -7 27 -21 54 -33 27 -11 60 -28 74 -37 28 -20 40 -23
40 -8 0 15 -74 60 -125 75 -34 11 -45 11 -43 3z"/>
<path d="M3372 1770 c-172 -19 -282 -118 -282 -252 l0 -38 75 0 75 0 0 49 c0
65 30 108 101 144 82 42 239 48 332 12 14 -6 17 -1 17 33 0 36 -3 41 -27 46
-56 10 -220 14 -291 6z"/>
<path d="M4143 1770 c-163 -25 -217 -171 -88 -238 62 -32 168 -52 275 -52
l105 1 -28 24 c-15 14 -60 34 -100 46 -160 46 -184 60 -173 103 12 48 89 66
196 46 41 -8 56 -7 62 2 10 16 10 55 1 61 -16 10 -200 15 -250 7z"/>
<path d="M2503 1687 c-39 -45 -97 -110 -128 -144 l-57 -63 69 0 69 0 99 110
c55 61 102 110 105 110 3 0 4 -49 2 -110 l-3 -110 75 0 c42 0 76 4 76 10 0 5
48 11 112 12 l111 3 1 33 1 32 -117 0 -118 0 0 65 0 65 130 0 130 0 0 35 0 35
-242 0 -243 0 -72 -83z"/>
<path d="M3780 1625 l0 -145 70 0 70 0 0 145 0 145 -70 0 -70 0 0 -145z"/>
<path d="M4460 1756 c0 -2 8 -10 18 -17 15 -13 16 -12 3 4 -13 16 -21 21 -21
13z"/>
<path d="M4440 1713 c0 -7 -5 -13 -11 -13 -5 0 -7 -4 -4 -10 3 -5 11 -10 16
-10 6 0 8 4 4 9 -3 5 -1 12 4 16 5 3 14 -2 19 -11 6 -11 11 -13 16 -5 4 6 2
11 -3 11 -6 0 -11 6 -11 13 0 8 -7 14 -15 14 -8 0 -15 -6 -15 -14z"/>
<path d="M1477 1683 c-25 -40 -47 -96 -47 -119 0 -28 17 -13 28 25 7 21 23 55
37 75 14 20 25 41 25 46 0 22 -21 8 -43 -27z"/>
<path d="M1995 1691 c-3 -5 3 -24 14 -43 10 -18 22 -49 26 -68 11 -57 16 -70
27 -70 16 0 1 76 -27 138 -24 53 -30 59 -40 43z"/>
<path d="M3430 1525 c0 -34 1 -35 38 -35 22 0 87 -3 145 -7 l107 -6 0 41 0 42
-145 0 -145 0 0 -35z"/>
<path d="M1250 1520 c-12 -8 -10 -10 8 -10 13 0 20 4 17 10 -7 12 -6 12 -25 0z"/>
<path d="M1318 1523 c7 -3 16 -2 19 1 4 3 -2 6 -13 5 -11 0 -14 -3 -6 -6z"/>
<path d="M1427 1458 c9 -47 43 -137 54 -144 22 -13 23 9 1 46 -12 22 -25 60
-29 85 -3 28 -11 45 -19 45 -10 0 -12 -9 -7 -32z"/>
<path d="M2043 1443 c-16 -48 -45 -109 -59 -125 -9 -9 -13 -22 -9 -28 12 -19
73 79 89 143 7 30 -11 39 -21 10z"/>
<path d="M2670 1343 l0 -53 195 0 195 0 0 35 0 35 -125 0 c-101 0 -125 3 -125
14 0 11 -18 15 -70 18 l-70 3 0 -52z"/>
<path d="M3140 1388 c0 -10 55 -47 102 -68 24 -10 88 -24 144 -31 84 -10 120
-10 215 2 l114 14 3 43 3 42 -70 0 c-54 0 -71 -3 -71 -14 0 -29 -154 -31 -220
-3 -29 12 -220 26 -220 15z"/>
<path d="M2214 1358 c-64 -70 -65 -68 17 -68 l74 1 38 49 38 50 -68 0 c-65 0
-71 -2 -99 -32z"/>
<path d="M3780 1340 l0 -50 70 0 70 0 0 50 0 50 -70 0 -70 0 0 -50z"/>
<path d="M4261 1372 c-29 -20 -167 -22 -215 -3 -34 14 -46 3 -46 -40 0 -31 10
-35 121 -45 76 -6 204 8 244 28 25 13 75 59 75 70 0 4 -35 8 -77 7 -56 0 -85
-5 -102 -17z"/>
<path d="M1536 1271 c-11 -17 75 -70 137 -85 30 -7 39 11 10 20 -48 16 -78 29
-109 50 -18 13 -36 19 -38 15z"/>
<path d="M1880 1234 c-25 -13 -62 -26 -82 -29 -42 -7 -52 -25 -15 -25 32 0
107 27 136 49 36 27 12 30 -39 5z"/>
<path d="M1386 1164 c-9 -24 -7 -28 9 -14 17 14 20 30 6 30 -5 0 -12 -7 -15
-16z"/>
<path d="M2070 1151 c0 -5 7 -12 16 -15 24 -9 28 -7 14 9 -14 17 -30 20 -30 6z"/>
<path d="M1726 1022 c-2 -4 -1 -14 5 -22 7 -12 9 -10 9 8 0 23 -5 28 -14 14z"/>
</g>
</svg>
